<?xml version="1.0" encoding="UTF-8"?>
<svg id="Layer_2" data-name="Layer 2" xmlns="http://www.w3.org/2000/svg" viewBox="0 0 605.87 102">
  <defs>
    <style>
      .cls-1 {
        fill: none;
        stroke: #000;
        stroke-miterlimit: 10;
        stroke-width: 2px;
      }

      .cls-2 {
        stroke-width: 0px;
      }
    </style>
  </defs>
  <g id="Layer_1-2" data-name="Layer 1">
    <g>
      <g>
        <path class="cls-2" d="m135.82,36.23c-1.03-1.67-2.4-2.98-4.09-3.93-1.7-.95-3.63-1.42-5.79-1.42-3.48,0-5.95.72-7.41,2.16-1.46,1.44-2.19,3.2-2.19,5.28,0,1.8.47,3.24,1.42,4.31.95,1.07,2.21,1.92,3.78,2.54,1.57.62,3.29,1.17,5.17,1.63,1.88.47,3.76,1,5.64,1.58,1.88.58,3.6,1.35,5.17,2.31,1.57.96,2.83,2.25,3.78,3.86.95,1.61,1.42,3.7,1.42,6.28,0,2.8-.64,5.21-1.9,7.23-1.27,2.02-3.12,3.57-5.54,4.65-2.42,1.08-5.34,1.62-8.76,1.62-2.26,0-4.36-.39-6.31-1.18-1.95-.79-3.6-1.78-4.96-2.99-.44-.4-.75-.58-.93-.54-.18.04-.39.36-.63.96l-.93,2.31c-.16.4-.31.64-.46.72-.15.08-.52.12-1.09.12h-.93c-.46,0-.77-.06-.92-.18s-.23-.4-.23-.84v-13.74c0-.42.08-.66.25-.73s.47-.11.89-.11h1.26c.4,0,.66.08.77.25s.17.42.19.76c.18,1.9.81,3.78,1.91,5.64,1.09,1.86,2.6,3.4,4.54,4.63s4.27,1.84,6.99,1.84,4.91-.45,6.58-1.36c1.67-.91,2.89-2.06,3.66-3.44s1.16-2.76,1.16-4.14c0-1.98-.48-3.55-1.43-4.72-.95-1.17-2.21-2.1-3.78-2.79-1.57-.69-3.3-1.27-5.17-1.74-1.88-.47-3.76-.97-5.64-1.5-1.88-.53-3.61-1.23-5.18-2.1-1.57-.87-2.83-2.04-3.78-3.52-.95-1.48-1.42-3.42-1.42-5.82,0-2.1.38-3.92,1.12-5.46s1.79-2.82,3.12-3.84c1.33-1.02,2.87-1.77,4.6-2.26,1.74-.49,3.59-.74,5.55-.74s3.68.31,5.35.92c1.67.61,3.1,1.44,4.3,2.47.34.3.63.46.87.48.24.02.47-.24.69-.78l.93-2.13c.08-.16.15-.26.23-.3.07-.04.23-.06.46-.06h1.92c.38,0,.62.07.71.19.09.13.14.4.14.8v12.93c0,.38-.08.61-.23.67-.15.07-.42.11-.79.11h-1.32c-.54,0-.83-.06-.87-.18-.04-.12-.08-.43-.12-.93-.16-2.18-.76-4.1-1.79-5.77Z"/>
        <path class="cls-2" d="m147.39,31.71c-.36,0-.58-.07-.65-.22-.07-.15-.1-.41-.1-.77v-1.23c0-.46.08-.75.23-.89.15-.13.44-.19.88-.19h20.19c2.72,0,5.06.29,7.02.87s3.57,1.42,4.85,2.5c1.27,1.09,2.21,2.41,2.82,3.96.61,1.55.92,3.3.92,5.27s-.31,3.69-.92,5.25c-.61,1.56-1.55,2.88-2.82,3.97-1.27,1.09-2.89,1.92-4.85,2.5s-4.3.87-7.02.87h-7.08c-.82,0-1.35.07-1.58.22-.23.15-.35.63-.35,1.46v12.93c0,.82.09,1.34.27,1.56.18.22.67.33,1.47.33h3.9c.46,0,.73.08.83.25.09.17.13.49.13.94v.66c0,.6-.06.99-.18,1.17-.12.18-.48.27-1.08.27h-16.02c-.62,0-1.05-.06-1.27-.19-.23-.13-.35-.53-.35-1.19v-1.08c0-.36.06-.59.19-.69.13-.1.39-.15.77-.15h4.26c.62,0,1-.1,1.15-.3.15-.2.23-.58.23-1.14v-36.18c0-.34-.07-.56-.21-.65-.14-.09-.39-.13-.75-.13h-4.89Zm20.55,18.6c2.88,0,5.1-.88,6.66-2.65s2.34-3.98,2.34-6.64-.78-4.9-2.34-6.66-3.78-2.64-6.66-2.64h-8.13c-.38,0-.62.1-.72.29-.1.19-.15.49-.15.88v16.11c0,.62.09,1,.29,1.12.19.13.59.19,1.21.19h7.5Z"/>
        <path class="cls-2" d="m187.29,31.71c-.5,0-.81-.09-.92-.29-.11-.19-.17-.51-.17-.97v-.9c0-.46.06-.76.18-.91.12-.15.4-.23.84-.23h36.06c.7,0,1.14.07,1.33.19.19.13.29.55.29,1.25v11.46c0,.48-.01.8-.03.96-.02.16-.29.24-.81.24h-1.2c-.44,0-.71-.1-.79-.29-.09-.19-.15-.47-.17-.86-.06-2.44-.38-4.37-.95-5.78-.57-1.41-1.5-2.41-2.77-3-1.28-.59-3.04-.88-5.28-.88h-13.08c-.54,0-.9.08-1.06.22-.17.15-.26.52-.26,1.1v14.58c0,.44.05.77.15.99.1.22.39.33.87.33h4.08c2.4,0,4.16-.55,5.28-1.65,1.12-1.1,1.75-2.53,1.89-4.29.04-.4.11-.66.21-.78.1-.12.3-.18.6-.18h.99c.34,0,.58.06.72.2.14.13.21.37.21.71v14.4c0,.48-.05.8-.15.96s-.37.24-.81.24h-.99c-.18,0-.35-.05-.51-.17s-.26-.39-.3-.85c-.1-1.18-.41-2.24-.93-3.17-.52-.93-1.29-1.66-2.29-2.21-1.01-.54-2.31-.81-3.92-.81h-3.96c-.52,0-.84.08-.96.25s-.18.53-.18,1.07v16.14c0,.56.08.92.23,1.08s.51.24,1.1.24h12.48c2.64,0,4.69-.32,6.15-.96,1.46-.64,2.49-1.76,3.09-3.36.6-1.6.92-3.84.96-6.72,0-.4.06-.66.17-.78s.29-.18.56-.18h1.14c.38,0,.66.05.85.15.19.1.28.35.28.75v13.38c0,.42-.06.7-.18.83-.12.13-.38.19-.78.19h-37.14c-.44,0-.75-.06-.93-.18-.18-.12-.27-.42-.27-.9v-1.38c0-.4.08-.64.24-.72.16-.08.44-.12.84-.12h3.9c.74,0,1.19-.09,1.37-.29.17-.19.25-.65.25-1.39v-35.46c0-.62-.09-.98-.27-1.09-.18-.11-.58-.17-1.2-.17h-4.05Z"/>
        <path class="cls-2" d="m233.94,41.67c1.22-2.82,2.89-5.26,5.01-7.33,2.12-2.07,4.55-3.67,7.29-4.81,2.74-1.14,5.63-1.71,8.67-1.71s5.46.54,7.69,1.61c2.23,1.07,4.1,2.41,5.62,4,.3.32.53.46.69.42.16-.04.32-.34.48-.9l1.26-4.29c.06-.22.11-.36.15-.43.04-.07.2-.11.48-.11h1.62c.26,0,.42.04.5.11.07.07.1.22.1.46v14.25c0,.32-.06.53-.18.63-.12.1-.35.15-.69.15h-1.83c-.38,0-.58-.06-.6-.2-.02-.13-.06-.35-.12-.67-.34-1.94-1.17-3.79-2.47-5.55-1.31-1.76-3.02-3.2-5.13-4.32-2.11-1.12-4.54-1.68-7.27-1.68-3.48,0-6.43.88-8.83,2.62-2.41,1.75-4.24,4.11-5.49,7.08-1.25,2.97-1.88,6.28-1.88,9.92s.57,6.94,1.72,9.9c1.15,2.96,2.88,5.31,5.19,7.05,2.31,1.74,5.2,2.61,8.68,2.61,3.22,0,5.99-.69,8.3-2.07,2.31-1.38,4.13-3.17,5.46-5.36,1.33-2.19,2.12-4.47,2.38-6.85.02-.18.08-.3.17-.38s.23-.11.44-.11h2.1c.22,0,.38.02.49.06s.15.16.14.36c-.24,3.4-1.19,6.45-2.85,9.15-1.66,2.7-3.94,4.83-6.84,6.39-2.9,1.56-6.36,2.34-10.38,2.34-3.2,0-6.14-.57-8.81-1.71-2.67-1.14-4.99-2.74-6.94-4.81-1.96-2.07-3.48-4.52-4.55-7.33-1.07-2.82-1.6-5.9-1.6-9.24s.61-6.42,1.83-9.24Z"/>
        <path class="cls-2" d="m290.01,71.16c0-.48.1-.77.3-.88.2-.11.52-.17.96-.17h4.92c.72,0,1.17-.09,1.35-.27.18-.18.27-.64.27-1.38v-35.7c0-.58-.08-.95-.24-1.11-.16-.16-.52-.24-1.08-.24h-2.88c-2.62,0-4.66.33-6.12,1-1.46.67-2.49,1.81-3.09,3.42-.6,1.61-.93,3.83-.99,6.64-.02.46-.09.78-.19.96-.11.18-.43.27-.95.27h-.84c-.5,0-.79-.14-.89-.43-.09-.29-.13-.66-.13-1.09v-12.18c0-.7.07-1.14.21-1.32.14-.18.55-.27,1.23-.27h37.8c.58,0,.93.08,1.06.25.13.17.19.55.19,1.16v12.96c0,.44-.08.71-.23.79s-.46.13-.92.13h-.72c-.56,0-.89-.12-.99-.34s-.16-.58-.18-1.07c-.06-2.78-.4-4.96-1.01-6.54-.61-1.58-1.64-2.7-3.09-3.36-1.45-.66-3.48-.99-6.08-.99h-3.06c-.52,0-.84.08-.96.24-.12.16-.18.51-.18,1.05v35.7c0,.76.08,1.24.25,1.42.17.19.62.29,1.37.29h4.92c.6,0,.96.09,1.08.27.12.18.18.58.18,1.2v.57c0,.6-.16.96-.46,1.08-.31.12-.73.18-1.27.18h-18.18c-.58,0-.96-.06-1.12-.19-.17-.13-.25-.48-.25-1.04v-1.02Z"/>
        <path class="cls-2" d="m328.44,31.71c-.5,0-.81-.09-.92-.29-.11-.19-.17-.51-.17-.97v-.9c0-.46.06-.76.18-.91.12-.15.4-.23.84-.23h36.06c.7,0,1.14.07,1.33.19.19.13.29.55.29,1.25v11.46c0,.48-.01.8-.03.96-.02.16-.29.24-.81.24h-1.2c-.44,0-.71-.1-.79-.29-.09-.19-.15-.47-.17-.86-.06-2.44-.38-4.37-.95-5.78-.57-1.41-1.5-2.41-2.77-3-1.28-.59-3.04-.88-5.28-.88h-13.08c-.54,0-.9.08-1.06.22-.17.15-.26.52-.26,1.1v14.58c0,.44.05.77.15.99.1.22.39.33.87.33h4.08c2.4,0,4.16-.55,5.28-1.65,1.12-1.1,1.75-2.53,1.89-4.29.04-.4.11-.66.21-.78.1-.12.3-.18.6-.18h.99c.34,0,.58.06.72.2.14.13.21.37.21.71v14.4c0,.48-.05.8-.15.96s-.37.24-.81.24h-.99c-.18,0-.35-.05-.51-.17s-.26-.39-.3-.85c-.1-1.18-.41-2.24-.93-3.17-.52-.93-1.29-1.66-2.29-2.21-1.01-.54-2.31-.81-3.92-.81h-3.96c-.52,0-.84.08-.96.25s-.18.53-.18,1.07v16.14c0,.56.08.92.23,1.08s.51.24,1.1.24h12.48c2.64,0,4.69-.32,6.15-.96,1.46-.64,2.49-1.76,3.09-3.36.6-1.6.92-3.84.96-6.72,0-.4.06-.66.17-.78s.29-.18.56-.18h1.14c.38,0,.66.05.85.15.19.1.28.35.28.75v13.38c0,.42-.06.7-.18.83-.12.13-.38.19-.78.19h-37.14c-.44,0-.75-.06-.93-.18-.18-.12-.27-.42-.27-.9v-1.38c0-.4.08-.64.24-.72.16-.08.44-.12.84-.12h3.9c.74,0,1.19-.09,1.37-.29.17-.19.25-.65.25-1.39v-35.46c0-.62-.09-.98-.27-1.09-.18-.11-.58-.17-1.2-.17h-4.05Z"/>
        <path class="cls-2" d="m415.42,72.23c-1.35,1.19-3.26,1.79-5.72,1.79-2,0-3.5-.39-4.5-1.16-1-.77-1.68-1.79-2.04-3.06-.36-1.27-.57-2.66-.63-4.17-.06-1.51-.13-3.02-.23-4.53-.09-1.51-.36-2.9-.81-4.17-.45-1.27-1.24-2.29-2.38-3.06-1.14-.77-2.81-1.16-5.01-1.16h-7.62c-.66,0-1.06.1-1.19.29-.13.19-.2.62-.2,1.28v14.82c0,.46.08.74.24.85.16.11.48.17.96.17h4.47c.42,0,.68.07.78.21.1.14.15.43.15.87v1.35c0,.38-.06.62-.19.72-.13.1-.4.15-.79.15h-16.98c-.38,0-.63-.06-.75-.19-.12-.13-.18-.39-.18-.77v-1.29c0-.46.08-.75.23-.87s.44-.18.85-.18h4.08c.62,0,1.01-.06,1.19-.2.17-.13.25-.5.25-1.09v-35.67c0-.64-.09-1.04-.25-1.2-.17-.16-.58-.24-1.22-.24h-4.05c-.52,0-.83-.09-.93-.27s-.15-.54-.15-1.08v-.93c0-.4.04-.67.13-.81.09-.14.33-.21.71-.21h22.86c3.62,0,6.53.54,8.73,1.62,2.2,1.08,3.79,2.53,4.78,4.35.99,1.82,1.49,3.83,1.49,6.03,0,2.46-.57,4.58-1.71,6.34-1.14,1.77-3.14,3.1-6,3.97-.56.18-.85.37-.86.57-.01.2.32.47.98.81,1.48.78,2.55,1.76,3.23,2.94.67,1.18,1.1,2.45,1.31,3.81.2,1.36.29,2.7.28,4.02s.02,2.53.09,3.62c.07,1.09.32,1.96.75,2.62.43.66,1.19.99,2.29.99.56,0,1.12-.25,1.69-.75.57-.5,1.08-1.27,1.52-2.31.1-.24.2-.43.31-.58.11-.15.31-.18.62-.08l1.5.48c.3.1.52.2.66.3.14.1.17.28.09.54-.54,1.82-1.49,3.33-2.83,4.52Zm-18.92-23.12c1.52,0,2.96-.32,4.33-.95,1.37-.63,2.49-1.58,3.36-2.87.87-1.28,1.31-2.91,1.31-4.89s-.44-3.62-1.31-4.91c-.87-1.29-1.99-2.24-3.36-2.87-1.37-.62-2.82-.93-4.33-.93h-9.99c-.7,0-1.11.06-1.23.18-.12.12-.18.53-.18,1.23v14.55c0,.62.08,1.02.23,1.18.15.17.54.26,1.19.26h9.99Z"/>
        <path class="cls-2" d="m479.77,72.23c-1.35,1.19-3.26,1.79-5.72,1.79-2,0-3.5-.39-4.5-1.16-1-.77-1.68-1.79-2.04-3.06-.36-1.27-.57-2.66-.63-4.17-.06-1.51-.13-3.02-.23-4.53-.09-1.51-.36-2.9-.81-4.17-.45-1.27-1.24-2.29-2.38-3.06-1.14-.77-2.81-1.16-5.01-1.16h-7.62c-.66,0-1.06.1-1.19.29-.13.19-.2.62-.2,1.28v14.82c0,.46.08.74.24.85.16.11.48.17.96.17h4.47c.42,0,.68.07.78.21.1.14.15.43.15.87v1.35c0,.38-.06.62-.19.72-.13.1-.4.15-.79.15h-16.98c-.38,0-.63-.06-.75-.19-.12-.13-.18-.39-.18-.77v-1.29c0-.46.08-.75.23-.87s.44-.18.85-.18h4.08c.62,0,1.01-.06,1.19-.2.17-.13.25-.5.25-1.09v-35.67c0-.64-.09-1.04-.25-1.2-.17-.16-.58-.24-1.22-.24h-4.05c-.52,0-.83-.09-.93-.27s-.15-.54-.15-1.08v-.93c0-.4.04-.67.13-.81.09-.14.33-.21.71-.21h22.86c3.62,0,6.53.54,8.73,1.62,2.2,1.08,3.79,2.53,4.78,4.35.99,1.82,1.49,3.83,1.49,6.03,0,2.46-.57,4.58-1.71,6.34-1.14,1.77-3.14,3.1-6,3.97-.56.18-.85.37-.86.57-.01.2.32.47.98.81,1.48.78,2.55,1.76,3.23,2.94.67,1.18,1.1,2.45,1.31,3.81.2,1.36.29,2.7.28,4.02s.02,2.53.09,3.62c.07,1.09.32,1.96.75,2.62.43.66,1.19.99,2.29.99.56,0,1.12-.25,1.69-.75.57-.5,1.08-1.27,1.52-2.31.1-.24.2-.43.31-.58.11-.15.31-.18.62-.08l1.5.48c.3.1.52.2.66.3.14.1.17.28.09.54-.54,1.82-1.49,3.33-2.83,4.52Zm-18.92-23.12c1.52,0,2.96-.32,4.33-.95,1.37-.63,2.49-1.58,3.36-2.87.87-1.28,1.31-2.91,1.31-4.89s-.44-3.62-1.31-4.91c-.87-1.29-1.99-2.24-3.36-2.87-1.37-.62-2.82-.93-4.33-.93h-9.99c-.7,0-1.11.06-1.23.18-.12.12-.18.53-.18,1.23v14.55c0,.62.08,1.02.23,1.18.15.17.54.26,1.19.26h9.99Z"/>
        <path class="cls-2" d="m484.21,41.93c.99-2.79,2.42-5.24,4.29-7.37,1.87-2.12,4.14-3.77,6.81-4.96,2.67-1.19,5.67-1.79,9.02-1.79s6.35.6,9.02,1.79c2.67,1.19,4.94,2.85,6.81,4.96,1.87,2.12,3.3,4.58,4.29,7.37.99,2.79,1.48,5.79,1.48,8.99s-.52,6.19-1.56,8.99c-1.04,2.79-2.52,5.25-4.44,7.37-1.92,2.12-4.2,3.78-6.84,4.96-2.64,1.19-5.56,1.79-8.76,1.79s-6.34-.6-9.02-1.79c-2.67-1.19-4.94-2.85-6.81-4.96-1.87-2.12-3.3-4.58-4.29-7.37-.99-2.79-1.49-5.79-1.49-8.99s.5-6.19,1.49-8.99Zm6.25,16.71c.56,2.43,1.42,4.57,2.59,6.42,1.17,1.85,2.69,3.3,4.56,4.36,1.87,1.06,4.1,1.59,6.71,1.59,2.76,0,5.08-.53,6.96-1.59,1.88-1.06,3.39-2.51,4.53-4.36,1.14-1.85,1.96-3.99,2.46-6.42.5-2.43.75-5.01.75-7.73s-.28-5.32-.84-7.74c-.56-2.42-1.42-4.55-2.59-6.41-1.17-1.85-2.69-3.3-4.54-4.36-1.86-1.06-4.1-1.59-6.72-1.59s-4.83.53-6.71,1.59-3.39,2.51-4.56,4.36c-1.17,1.85-2.04,3.99-2.59,6.41-.56,2.42-.84,5-.84,7.74s.28,5.29.84,7.73Z"/>
        <path class="cls-2" d="m559.81,36.23c-1.03-1.67-2.4-2.98-4.09-3.93-1.7-.95-3.63-1.42-5.79-1.42-3.48,0-5.95.72-7.41,2.16-1.46,1.44-2.19,3.2-2.19,5.28,0,1.8.47,3.24,1.42,4.31.95,1.07,2.21,1.92,3.78,2.54,1.57.62,3.29,1.17,5.17,1.63,1.88.47,3.76,1,5.64,1.58,1.88.58,3.6,1.35,5.17,2.31,1.57.96,2.83,2.25,3.78,3.86.95,1.61,1.42,3.7,1.42,6.28,0,2.8-.64,5.21-1.9,7.23-1.27,2.02-3.12,3.57-5.54,4.65-2.42,1.08-5.34,1.62-8.76,1.62-2.26,0-4.36-.39-6.31-1.18-1.95-.79-3.6-1.78-4.96-2.99-.44-.4-.75-.58-.93-.54-.18.04-.39.36-.63.96l-.93,2.31c-.16.4-.31.64-.46.72-.15.08-.52.12-1.09.12h-.93c-.46,0-.77-.06-.92-.18s-.23-.4-.23-.84v-13.74c0-.42.08-.66.25-.73s.47-.11.89-.11h1.26c.4,0,.66.08.77.25s.17.42.19.76c.18,1.9.81,3.78,1.91,5.64,1.09,1.86,2.6,3.4,4.54,4.63s4.27,1.84,6.99,1.84,4.91-.45,6.58-1.36c1.67-.91,2.89-2.06,3.66-3.44s1.16-2.76,1.16-4.14c0-1.98-.48-3.55-1.43-4.72-.95-1.17-2.21-2.1-3.78-2.79-1.57-.69-3.3-1.27-5.17-1.74-1.88-.47-3.76-.97-5.64-1.5-1.88-.53-3.61-1.23-5.18-2.1-1.57-.87-2.83-2.04-3.78-3.52-.95-1.48-1.42-3.42-1.42-5.82,0-2.1.38-3.92,1.12-5.46s1.79-2.82,3.12-3.84c1.33-1.02,2.87-1.77,4.6-2.26,1.74-.49,3.59-.74,5.55-.74s3.68.31,5.35.92c1.67.61,3.1,1.44,4.3,2.47.34.3.63.46.87.48.24.02.47-.24.69-.78l.93-2.13c.08-.16.15-.26.23-.3.07-.04.23-.06.46-.06h1.92c.38,0,.62.07.71.19.09.13.14.4.14.8v12.93c0,.38-.08.61-.23.67-.15.07-.42.11-.79.11h-1.32c-.54,0-.83-.06-.87-.18-.04-.12-.08-.43-.12-.93-.16-2.18-.76-4.1-1.79-5.77Z"/>
        <path class="cls-2" d="m598.96,36.23c-1.03-1.67-2.4-2.98-4.09-3.93-1.7-.95-3.63-1.42-5.79-1.42-3.48,0-5.95.72-7.41,2.16-1.46,1.44-2.19,3.2-2.19,5.28,0,1.8.47,3.24,1.42,4.31.95,1.07,2.21,1.92,3.78,2.54,1.57.62,3.29,1.17,5.17,1.63,1.88.47,3.76,1,5.64,1.58,1.88.58,3.6,1.35,5.17,2.31,1.57.96,2.83,2.25,3.78,3.86.95,1.61,1.42,3.7,1.42,6.28,0,2.8-.64,5.21-1.9,7.23-1.27,2.02-3.12,3.57-5.54,4.65-2.42,1.08-5.34,1.62-8.76,1.62-2.26,0-4.36-.39-6.31-1.18-1.95-.79-3.6-1.78-4.96-2.99-.44-.4-.75-.58-.93-.54-.18.04-.39.36-.63.96l-.93,2.31c-.16.4-.31.64-.46.72-.15.08-.52.12-1.09.12h-.93c-.46,0-.77-.06-.92-.18s-.23-.4-.23-.84v-13.74c0-.42.08-.66.25-.73s.47-.11.89-.11h1.26c.4,0,.66.08.77.25s.17.42.19.76c.18,1.9.81,3.78,1.91,5.64,1.09,1.86,2.6,3.4,4.54,4.63s4.27,1.84,6.99,1.84,4.91-.45,6.58-1.36c1.67-.91,2.89-2.06,3.66-3.44s1.16-2.76,1.16-4.14c0-1.98-.48-3.55-1.43-4.72-.95-1.17-2.21-2.1-3.78-2.79-1.57-.69-3.3-1.27-5.17-1.74-1.88-.47-3.76-.97-5.64-1.5-1.88-.53-3.61-1.23-5.18-2.1-1.57-.87-2.83-2.04-3.78-3.52-.95-1.48-1.42-3.42-1.42-5.82,0-2.1.38-3.92,1.12-5.46s1.79-2.82,3.12-3.84c1.33-1.02,2.87-1.77,4.6-2.26,1.74-.49,3.59-.74,5.55-.74s3.68.31,5.35.92c1.67.61,3.1,1.44,4.3,2.47.34.3.63.46.87.48.24.02.47-.24.69-.78l.93-2.13c.08-.16.15-.26.23-.3.07-.04.23-.06.46-.06h1.92c.38,0,.62.07.71.19.09.13.14.4.14.8v12.93c0,.38-.08.61-.23.67-.15.07-.42.11-.79.11h-1.32c-.54,0-.83-.06-.87-.18-.04-.12-.08-.43-.12-.93-.16-2.18-.76-4.1-1.79-5.77Z"/>
      </g>
      <g>
        <path class="cls-2" d="m26.69,28.31c-1.03-1.67-2.4-2.98-4.09-3.93-1.7-.95-3.63-1.42-5.79-1.42-3.48,0-5.95.72-7.41,2.16-1.46,1.44-2.19,3.2-2.19,5.28,0,1.8.47,3.24,1.42,4.31.95,1.07,2.21,1.92,3.78,2.54,1.57.62,3.29,1.17,5.17,1.63,1.88.47,3.76,1,5.64,1.58,1.88.58,3.6,1.35,5.17,2.31,1.57.96,2.83,2.25,3.78,3.86.95,1.61,1.42,3.7,1.42,6.28,0,2.8-.64,5.21-1.9,7.23-1.27,2.02-3.12,3.57-5.54,4.65-2.42,1.08-5.34,1.62-8.76,1.62-2.26,0-4.36-.39-6.31-1.18-1.95-.79-3.6-1.78-4.96-2.99-.44-.4-.75-.58-.93-.54-.18.04-.39.36-.63.96l-.93,2.31c-.16.4-.31.64-.46.72-.15.08-.52.12-1.09.12h-.93c-.46,0-.77-.06-.92-.18s-.23-.4-.23-.84v-13.74c0-.42.08-.66.25-.73s.47-.11.89-.11h1.26c.4,0,.66.08.77.25s.17.42.19.76c.18,1.9.81,3.78,1.91,5.64,1.09,1.86,2.6,3.4,4.54,4.63s4.27,1.84,6.99,1.84,4.91-.45,6.58-1.36c1.67-.91,2.89-2.06,3.66-3.44s1.16-2.76,1.16-4.14c0-1.98-.48-3.55-1.43-4.72-.95-1.17-2.21-2.1-3.78-2.79-1.57-.69-3.3-1.27-5.17-1.74-1.88-.47-3.76-.97-5.64-1.5-1.88-.53-3.61-1.23-5.18-2.1-1.57-.87-2.83-2.04-3.78-3.52-.95-1.48-1.42-3.42-1.42-5.82,0-2.1.38-3.92,1.12-5.46s1.79-2.82,3.12-3.84c1.33-1.02,2.87-1.77,4.6-2.26,1.74-.49,3.59-.74,5.55-.74s3.68.31,5.35.92c1.67.61,3.1,1.44,4.3,2.47.34.3.63.46.87.48.24.02.47-.24.69-.78l.93-2.13c.08-.16.15-.26.23-.3.07-.04.23-.06.46-.06h1.92c.38,0,.62.07.71.19.09.13.14.4.14.8v12.93c0,.38-.08.61-.23.67-.15.07-.42.11-.79.11h-1.32c-.54,0-.83-.06-.87-.18-.04-.12-.08-.43-.12-.93-.16-2.18-.76-4.1-1.79-5.77Z"/>
        <path class="cls-2" d="m70.97,77.31c-1.35,1.19-3.26,1.79-5.72,1.79-2,0-3.5-.39-4.5-1.16-1-.77-1.68-1.79-2.04-3.06-.36-1.27-.57-2.66-.63-4.17-.06-1.51-.13-3.02-.23-4.53-.09-1.51-.36-2.9-.81-4.17-.45-1.27-1.24-2.29-2.38-3.06-1.14-.77-2.81-1.16-5.01-1.16h-7.62c-.66,0-1.06.1-1.19.29-.13.19-.2.62-.2,1.28v14.82c0,.46.08.74.24.85.16.11.48.17.96.17h4.47c.42,0,.68.07.78.21.1.14.15.43.15.87v1.35c0,.38-.06.62-.19.72-.13.1-.4.15-.79.15h-16.98c-.38,0-.63-.06-.75-.19-.12-.13-.18-.39-.18-.77v-1.29c0-.46.08-.75.23-.87s.44-.18.85-.18h4.08c.62,0,1.01-.06,1.19-.2.17-.13.25-.5.25-1.09v-35.67c0-.64-.09-1.04-.25-1.2-.17-.16-.58-.24-1.22-.24h-4.05c-.52,0-.83-.09-.93-.27s-.15-.54-.15-1.08v-.93c0-.4.04-.67.13-.81.09-.14.33-.21.71-.21h22.86c3.62,0,6.53.54,8.73,1.62,2.2,1.08,3.79,2.53,4.78,4.35.99,1.82,1.49,3.83,1.49,6.03,0,2.46-.57,4.58-1.71,6.34-1.14,1.77-3.14,3.1-6,3.97-.56.18-.85.37-.86.57-.01.2.32.47.98.81,1.48.78,2.55,1.76,3.23,2.94.67,1.18,1.1,2.45,1.31,3.81.2,1.36.29,2.7.28,4.02s.02,2.53.09,3.62c.07,1.09.32,1.96.75,2.62.43.66,1.19.99,2.29.99.56,0,1.12-.25,1.69-.75.57-.5,1.08-1.27,1.52-2.31.1-.24.2-.43.31-.58.11-.15.31-.18.62-.08l1.5.48c.3.1.52.2.66.3.14.1.17.28.09.54-.54,1.82-1.49,3.33-2.83,4.52Zm-18.92-23.12c1.52,0,2.96-.32,4.33-.95,1.37-.63,2.49-1.58,3.36-2.87.87-1.28,1.31-2.91,1.31-4.89s-.44-3.62-1.31-4.91c-.87-1.29-1.99-2.24-3.36-2.87-1.37-.62-2.82-.93-4.33-.93h-9.99c-.7,0-1.11.06-1.23.18-.12.12-.18.53-.18,1.23v14.55c0,.62.08,1.02.23,1.18.15.17.54.26,1.19.26h9.99Z"/>
      </g>
      <line class="cls-1" x1="91.17" x2="91.17" y2="102"/>
    </g>
  </g>
</svg>