<?xml version="1.0" encoding="UTF-8"?>
<svg id="Layer_2" data-name="Layer 2" xmlns="http://www.w3.org/2000/svg" viewBox="0 0 73.84 59.2">
  <defs>
    <style>
      .cls-1 {
        stroke-width: 0px;
      }
    </style>
  </defs>
  <g id="Layer_1-2" data-name="Layer 1">
    <g>
      <path class="cls-1" d="m26.69,8.42c-1.03-1.67-2.4-2.98-4.09-3.93-1.7-.95-3.63-1.42-5.79-1.42-3.48,0-5.95.72-7.41,2.16-1.46,1.44-2.19,3.2-2.19,5.28,0,1.8.47,3.24,1.42,4.31.95,1.07,2.21,1.92,3.78,2.54,1.57.62,3.29,1.17,5.17,1.63,1.88.47,3.76,1,5.64,1.58,1.88.58,3.6,1.35,5.17,2.31,1.57.96,2.83,2.25,3.78,3.86.95,1.61,1.42,3.7,1.42,6.28,0,2.8-.64,5.21-1.9,7.23-1.27,2.02-3.12,3.57-5.54,4.65-2.42,1.08-5.34,1.62-8.76,1.62-2.26,0-4.36-.39-6.31-1.18-1.95-.79-3.6-1.78-4.96-2.99-.44-.4-.75-.58-.93-.54-.18.04-.39.36-.63.96l-.93,2.31c-.16.4-.31.64-.46.72-.15.08-.52.12-1.09.12h-.93c-.46,0-.77-.06-.92-.18s-.23-.4-.23-.84v-13.74c0-.42.08-.66.25-.73s.47-.11.89-.11h1.26c.4,0,.66.08.77.25s.17.42.19.76c.18,1.9.81,3.78,1.91,5.64,1.09,1.86,2.6,3.4,4.54,4.63s4.27,1.84,6.99,1.84,4.91-.45,6.58-1.36c1.67-.91,2.89-2.06,3.66-3.44s1.16-2.76,1.16-4.14c0-1.98-.48-3.55-1.43-4.72-.95-1.17-2.21-2.1-3.78-2.79-1.57-.69-3.3-1.27-5.17-1.74-1.88-.47-3.76-.97-5.64-1.5-1.88-.53-3.61-1.23-5.18-2.1-1.57-.87-2.83-2.04-3.78-3.52-.95-1.48-1.42-3.42-1.42-5.82,0-2.1.38-3.92,1.12-5.46s1.79-2.82,3.12-3.84c1.33-1.02,2.87-1.77,4.6-2.26,1.74-.49,3.59-.74,5.55-.74s3.68.31,5.35.92c1.67.61,3.1,1.44,4.3,2.47.34.3.63.46.87.48.24.02.47-.24.69-.78l.93-2.13c.08-.16.15-.26.23-.3.07-.04.23-.06.46-.06h1.92c.38,0,.62.07.71.19.09.13.14.4.14.8v12.93c0,.38-.08.61-.23.67-.15.07-.42.11-.79.11h-1.32c-.54,0-.83-.06-.87-.18-.04-.12-.08-.43-.12-.93-.16-2.18-.76-4.1-1.79-5.77Z"/>
      <path class="cls-1" d="m70.97,57.42c-1.35,1.19-3.26,1.79-5.72,1.79-2,0-3.5-.39-4.5-1.16-1-.77-1.68-1.79-2.04-3.06-.36-1.27-.57-2.66-.63-4.17-.06-1.51-.13-3.02-.23-4.53-.09-1.51-.36-2.9-.81-4.17-.45-1.27-1.24-2.29-2.38-3.06-1.14-.77-2.81-1.16-5.01-1.16h-7.62c-.66,0-1.06.1-1.19.29-.13.19-.2.62-.2,1.28v14.82c0,.46.08.74.24.85.16.11.48.17.96.17h4.47c.42,0,.68.07.78.21.1.14.15.43.15.87v1.35c0,.38-.06.62-.19.72-.13.1-.4.15-.79.15h-16.98c-.38,0-.63-.06-.75-.19-.12-.13-.18-.39-.18-.77v-1.29c0-.46.08-.75.23-.87s.44-.18.85-.18h4.08c.62,0,1.01-.06,1.19-.2.17-.13.25-.5.25-1.09V18.34c0-.64-.09-1.04-.25-1.2-.17-.16-.58-.24-1.22-.24h-4.05c-.52,0-.83-.09-.93-.27s-.15-.54-.15-1.08v-.93c0-.4.04-.67.13-.81.09-.14.33-.21.71-.21h22.86c3.62,0,6.53.54,8.73,1.62,2.2,1.08,3.79,2.53,4.78,4.35.99,1.82,1.49,3.83,1.49,6.03,0,2.46-.57,4.58-1.71,6.34-1.14,1.77-3.14,3.1-6,3.97-.56.18-.85.37-.86.57-.01.2.32.47.98.81,1.48.78,2.55,1.76,3.23,2.94.67,1.18,1.1,2.45,1.31,3.81.2,1.36.29,2.7.28,4.02s.02,2.53.09,3.62c.07,1.09.32,1.96.75,2.62.43.66,1.19.99,2.29.99.56,0,1.12-.25,1.69-.75.57-.5,1.08-1.27,1.52-2.31.1-.24.2-.43.31-.58.11-.15.31-.18.62-.08l1.5.48c.3.1.52.2.66.3.14.1.17.28.09.54-.54,1.82-1.49,3.33-2.83,4.52Zm-18.92-23.12c1.52,0,2.96-.32,4.33-.95,1.37-.63,2.49-1.58,3.36-2.87.87-1.28,1.31-2.91,1.31-4.89s-.44-3.62-1.31-4.91c-.87-1.29-1.99-2.24-3.36-2.87-1.37-.62-2.82-.93-4.33-.93h-9.99c-.7,0-1.11.06-1.23.18-.12.12-.18.53-.18,1.23v14.55c0,.62.08,1.02.23,1.18.15.17.54.26,1.19.26h9.99Z"/>
    </g>
  </g>
</svg>